<svg width="640" height="300" viewBox="0 0 640 300" fill="none" xmlns="http://www.w3.org/2000/svg" role="img" aria-label="Events illustration">
  <rect width="640" height="300" rx="20" fill="#FFFFFF"/>
  <rect x="36" y="38" width="568" height="224" rx="16" fill="#F8FAFC" stroke="#D9E2F5" stroke-width="2"/>
  <rect x="36" y="38" width="568" height="54" rx="16" fill="#2A3582"/>
  <rect x="64" y="56" width="128" height="18" rx="9" fill="#FFFFFF" fill-opacity="0.28"/>
  <rect x="444" y="52" width="130" height="26" rx="13" fill="#EB670E"/>
  <rect x="68" y="118" width="120" height="126" rx="12" fill="#FFFFFF" stroke="#E5EAF6"/>
  <rect x="208" y="118" width="120" height="126" rx="12" fill="#FFFFFF" stroke="#E5EAF6"/>
  <rect x="348" y="118" width="120" height="126" rx="12" fill="#FFFFFF" stroke="#E5EAF6"/>
  <rect x="488" y="118" width="84" height="126" rx="12" fill="#FFFFFF" stroke="#E5EAF6"/>
  <rect x="84" y="136" width="88" height="9" rx="4.5" fill="#2A3582" fill-opacity="0.2"/>
  <rect x="84" y="155" width="64" height="8" rx="4" fill="#6B7280" fill-opacity="0.28"/>
  <rect x="84" y="173" width="76" height="8" rx="4" fill="#6B7280" fill-opacity="0.2"/>
  <circle cx="132" cy="213" r="14" fill="#EB670E"/>
  <rect x="224" y="136" width="88" height="9" rx="4.5" fill="#2A3582" fill-opacity="0.2"/>
  <rect x="224" y="155" width="64" height="8" rx="4" fill="#6B7280" fill-opacity="0.28"/>
  <rect x="224" y="173" width="76" height="8" rx="4" fill="#6B7280" fill-opacity="0.2"/>
  <circle cx="272" cy="213" r="14" fill="#EB670E"/>
  <rect x="364" y="136" width="88" height="9" rx="4.5" fill="#2A3582" fill-opacity="0.2"/>
  <rect x="364" y="155" width="64" height="8" rx="4" fill="#6B7280" fill-opacity="0.28"/>
  <rect x="364" y="173" width="76" height="8" rx="4" fill="#6B7280" fill-opacity="0.2"/>
  <circle cx="412" cy="213" r="14" fill="#EB670E"/>
</svg>
