<svg width="640" height="360" viewBox="0 0 640 360" fill="none" xmlns="http://www.w3.org/2000/svg" role="img" aria-label="Marketplace illustration">
  <rect width="640" height="360" rx="20" fill="#F8FAFC"/>
  <rect x="44" y="78" width="552" height="228" rx="16" fill="white" stroke="#D7DEEF" stroke-width="2"/>
  <rect x="44" y="78" width="552" height="42" rx="16" fill="#2A3582"/>
  <circle cx="80" cy="99" r="7" fill="#EB670E"/>
  <circle cx="104" cy="99" r="7" fill="#FFFFFF" fill-opacity="0.45"/>
  <circle cx="128" cy="99" r="7" fill="#FFFFFF" fill-opacity="0.25"/>
  <rect x="76" y="146" width="142" height="132" rx="12" fill="#F8FAFC" stroke="#E5EAF6"/>
  <rect x="248" y="146" width="142" height="132" rx="12" fill="#F8FAFC" stroke="#E5EAF6"/>
  <rect x="420" y="146" width="142" height="132" rx="12" fill="#F8FAFC" stroke="#E5EAF6"/>
  <rect x="92" y="164" width="110" height="10" rx="5" fill="#2A3582" fill-opacity="0.2"/>
  <rect x="92" y="184" width="88" height="8" rx="4" fill="#6B7280" fill-opacity="0.28"/>
  <rect x="92" y="202" width="92" height="8" rx="4" fill="#6B7280" fill-opacity="0.2"/>
  <rect x="92" y="236" width="68" height="24" rx="8" fill="#EB670E"/>
  <rect x="264" y="164" width="110" height="10" rx="5" fill="#2A3582" fill-opacity="0.2"/>
  <rect x="264" y="184" width="88" height="8" rx="4" fill="#6B7280" fill-opacity="0.28"/>
  <rect x="264" y="202" width="92" height="8" rx="4" fill="#6B7280" fill-opacity="0.2"/>
  <rect x="264" y="236" width="68" height="24" rx="8" fill="#EB670E"/>
  <rect x="436" y="164" width="110" height="10" rx="5" fill="#2A3582" fill-opacity="0.2"/>
  <rect x="436" y="184" width="88" height="8" rx="4" fill="#6B7280" fill-opacity="0.28"/>
  <rect x="436" y="202" width="92" height="8" rx="4" fill="#6B7280" fill-opacity="0.2"/>
  <rect x="436" y="236" width="68" height="24" rx="8" fill="#EB670E"/>
</svg>
